<?xml version="1.0" encoding="UTF-8"?>
<svg width="100" height="100" viewBox="0 0 100 100" xmlns="http://www.w3.org/2000/svg">
  <!-- Background circle -->
  <circle cx="50" cy="50" r="45" fill="#f0f0f0" stroke="#c0c0c0" stroke-width="2"/>
  
  <!-- Trophy icon -->
  <g transform="translate(25, 20)">
    <!-- Trophy body -->
    <path d="M25,10 L25,30 Q25,40 15,40 L35,40 Q25,40 25,30 Z" fill="#ffd700" stroke="#d4af37" stroke-width="2"/>
    
    <!-- Trophy handles -->
    <path d="M25,15 Q5,15 5,25 Q5,35 15,35" fill="none" stroke="#d4af37" stroke-width="2"/>
    <path d="M25,15 Q45,15 45,25 Q45,35 35,35" fill="none" stroke="#d4af37" stroke-width="2"/>
    
    <!-- Trophy base -->
    <rect x="15" y="40" width="20" height="5" fill="#d4af37"/>
    <rect x="20" y="45" width="10" height="15" fill="#d4af37"/>
    <rect x="15" y="60" width="20" height="5" fill="#d4af37"/>
  </g>
  
  <!-- Star background -->
  <g fill="#ffd700" opacity="0.3">
    <circle cx="30" cy="25" r="5"/>
    <circle cx="70" cy="25" r="5"/>
    <circle cx="30" cy="75" r="5"/>
    <circle cx="70" cy="75" r="5"/>
  </g>
</svg> 