<?xml version="1.0" encoding="UTF-8"?>
<svg width="100" height="100" viewBox="0 0 100 100" xmlns="http://www.w3.org/2000/svg">
  <!-- Background circle -->
  <circle cx="50" cy="50" r="45" fill="#f0f0f0" stroke="#c0c0c0" stroke-width="2"/>
  
  <!-- Handshake -->
  <g transform="translate(20, 35)">
    <!-- Left hand -->
    <path d="M0,15 C5,10 10,10 15,15 L25,25 L20,30 L10,20 C7,17 4,17 0,20 Z" fill="#ffcc80" stroke="#ef6c00" stroke-width="1.5"/>
    
    <!-- Right hand -->
    <path d="M60,15 C55,10 50,10 45,15 L35,25 L40,30 L50,20 C53,17 56,17 60,20 Z" fill="#ffcc80" stroke="#ef6c00" stroke-width="1.5"/>
    
    <!-- Center grip -->
    <path d="M25,25 L35,25 L40,30 L20,30 Z" fill="#fb8c00" stroke="#ef6c00" stroke-width="1.5"/>
    
    <!-- Left sleeve -->
    <path d="M0,15 L0,20 C4,17 7,17 10,20 L10,15 C7,10 4,10 0,15 Z" fill="#42a5f5" stroke="#1976d2" stroke-width="1.5"/>
    
    <!-- Right sleeve -->
    <path d="M60,15 L60,20 C56,17 53,17 50,20 L50,15 C53,10 56,10 60,15 Z" fill="#7e57c2" stroke="#512da8" stroke-width="1.5"/>
  </g>
  
  <!-- Glow effect -->
  <circle cx="50" cy="50" r="38" fill="none" stroke="#ffd54f" stroke-width="2" opacity="0.5"/>
</svg> 