<?xml version="1.0" encoding="UTF-8"?>
<svg width="100" height="100" viewBox="0 0 100 100" xmlns="http://www.w3.org/2000/svg">
  <!-- Background circle -->
  <circle cx="50" cy="50" r="45" fill="#f0f0f0" stroke="#c0c0c0" stroke-width="2"/>
  
  <!-- Rocket -->
  <g transform="translate(25, 20)">
    <!-- Rocket body -->
    <path d="M25,5 L15,35 L35,35 L25,5 Z" fill="#ff4b4b" stroke="#d43a3a" stroke-width="2"/>
    
    <!-- Rocket window -->
    <circle cx="25" cy="20" r="5" fill="#88cfff" stroke="#6ba8d1" stroke-width="1"/>
    
    <!-- Rocket fins -->
    <path d="M15,35 L10,45 L15,45 Z" fill="#9e9e9e" stroke="#787878" stroke-width="1"/>
    <path d="M35,35 L40,45 L35,45 Z" fill="#9e9e9e" stroke="#787878" stroke-width="1"/>
    
    <!-- Flame -->
    <path d="M20,35 L25,55 L30,35 Z" fill="#ffa726" stroke="#f57c00" stroke-width="1"/>
    <path d="M22,35 L25,50 L28,35 Z" fill="#ffcc80" stroke="#f57c00" stroke-width="1"/>
  </g>
  
  <!-- Stars background -->
  <g fill="#ffe082" opacity="0.5">
    <circle cx="20" cy="15" r="2"/>
    <circle cx="80" cy="15" r="2"/>
    <circle cx="70" cy="40" r="2"/>
    <circle cx="30" cy="40" r="2"/>
    <circle cx="50" cy="20" r="2"/>
    <circle cx="65" cy="75" r="2"/>
    <circle cx="35" cy="75" r="2"/>
  </g>
</svg> 